<svg width="37" height="33" viewBox="0 0 37 33" fill="none" xmlns="http://www.w3.org/2000/svg">
<path d="M18.5003 30.4465C17.4674 30.4465 16.419 30.2488 15.602 29.8403L7.12284 25.663C3.66951 23.6732 3.45367 23.3702 3.45367 20.2471V12.6305C3.45367 9.50741 3.65409 9.20433 7.04576 7.24088L15.5865 3.02408C17.2053 2.22025 19.749 2.22025 21.3678 3.02408L29.8778 7.21453C33.3311 9.20433 33.547 9.50741 33.547 12.6305V20.2339C33.547 23.357 33.3465 23.6601 29.9549 25.6235L21.414 29.8403C20.5815 30.2488 19.5332 30.4465 18.5003 30.4465ZM18.5003 4.40771C17.8528 4.40771 17.2207 4.51313 16.7736 4.73715L8.29451 8.9276C5.78159 10.3771 5.78159 10.3771 5.78159 12.6305V20.2339C5.78159 22.4873 5.78159 22.4873 8.35617 23.9763L16.7736 28.1272C17.6832 28.5753 19.3328 28.5753 20.2424 28.1272L28.7215 23.9368C31.219 22.4873 31.219 22.4873 31.219 20.2339V12.6305C31.219 10.3771 31.219 10.3771 28.6445 8.88807L20.227 4.73715C19.7799 4.51313 19.1478 4.40771 18.5003 4.40771Z" fill="black"/>
<path d="M18.5 21.3806C15.3088 21.3806 12.7188 19.1668 12.7188 16.4391C12.7188 13.7113 15.3088 11.4975 18.5 11.4975C21.6912 11.4975 24.2812 13.7113 24.2812 16.4391C24.2812 19.1668 21.6912 21.3806 18.5 21.3806ZM18.5 13.4741C16.5883 13.4741 15.0312 14.8051 15.0312 16.4391C15.0312 18.0731 16.5883 19.404 18.5 19.404C20.4117 19.404 21.9687 18.0731 21.9687 16.4391C21.9687 14.8051 20.4117 13.4741 18.5 13.4741Z" fill="black"/>
</svg>
