<svg>
  <symbol
    id="key"
    width="inherit"
    height="inherit"
    viewBox="0 0 24 22"
    fill="none"
    xmlns="http://www.w3.org/2000/svg"
  >
    <g>
      <path
        d="M9 19.616H15C20 19.616 22 17.9065 22 13.6327V8.50415C22 4.23036 20 2.52084 15 2.52084H9C4 2.52084 2 4.23036 2 8.50415V13.6327C2 17.9065 4 19.616 9 19.616Z"
        stroke="inherit"
        stroke-width="1.5"
        stroke-linecap="round"
        stroke-linejoin="round"
      />
      <path
        d="M16.28 12.4446C15.15 13.4105 13.53 13.7096 12.1 13.325L9.51001 15.5303C9.33001 15.6927 8.96001 15.7952 8.69001 15.7611L7.49001 15.6243C7.09001 15.5816 6.73001 15.2567 6.67001 14.9234L6.51001 13.8977C6.47001 13.6754 6.60001 13.3592 6.78001 13.1968L9.36001 10.9915C8.92001 9.7692 9.26001 8.3845 10.39 7.41863C12.01 6.03392 14.65 6.03392 16.28 7.41863C17.9 8.79479 17.9 11.0513 16.28 12.4446Z"
        stroke="inherit"
        stroke-width="1.5"
        stroke-miterlimit="10"
        stroke-linecap="round"
        stroke-linejoin="round"
      />
      <path
        d="M10.45 14.7268L9.59998 13.9917"
        stroke="inherit"
        stroke-width="1.5"
        stroke-miterlimit="10"
        stroke-linecap="round"
        stroke-linejoin="round"
      />
      <path
        d="M13.3945 9.95724H13.4035"
        stroke="inherit"
        stroke-width="2"
        stroke-linecap="round"
        stroke-linejoin="round"
      />
    </g>
  </symbol>
  <symbol
    id="user"
    width="inherit"
    height="inherit"
    viewBox="0 0 24 21"
    fill="inherit"
    stroke="inherit"
    xmlns="http://www.w3.org/2000/svg"
  >
    <g>
      <path
        d="M15.0006 19.7684H9.00063C7.68063 19.7684 6.58063 19.6573 5.65063 19.418C5.31063 19.3325 5.09063 19.0504 5.11063 18.7513C5.36063 16.1955 8.39063 14.1868 12.0006 14.1868C15.6106 14.1868 18.6306 16.187 18.8906 18.7513C18.9206 19.059 18.7006 19.3325 18.3506 19.418C17.4206 19.6573 16.3206 19.7684 15.0006 19.7684ZM6.72063 18.3239C7.38063 18.435 8.13063 18.4863 9.00063 18.4863H15.0006C15.8706 18.4863 16.6206 18.435 17.2806 18.3239C16.7506 16.6827 14.5606 15.4689 12.0006 15.4689C9.44063 15.4689 7.25063 16.6827 6.72063 18.3239Z"
        fill="inherit"
        stroke="none"
      />
      <path
        d="M15 1.92987H9C4 1.92987 2 3.63939 2 7.91318V13.0417C2 16.2727 3.14 18.0421 5.86 18.7002C6.08 16.4779 8.75 14.7256 12 14.7256C15.25 14.7256 17.92 16.4779 18.14 18.7002C20.86 18.0421 22 16.2727 22 13.0417V7.91318C22 3.63939 20 1.92987 15 1.92987ZM12 12.3323C10.02 12.3323 8.42 10.9561 8.42 9.26369C8.42 7.57129 10.02 6.20366 12 6.20366C13.98 6.20366 15.58 7.57129 15.58 9.26369C15.58 10.9561 13.98 12.3323 12 12.3323Z"
        stroke="inherit"
        fill="none"
        stroke-width="1.5"
        stroke-linecap="round"
        stroke-linejoin="round"
      />
    </g>
  </symbol>
  <symbol
    id="box"
    width="inherit"
    height="inherit"
    viewBox="0 0 24 22"
    fill="inherit"
    stroke="none"
    xmlns="http://www.w3.org/2000/svg"
  >
    <g>
      <path
        d="M15 19.9616H9C3.57 19.9616 1.25 17.9786 1.25 13.3372V8.20869C1.25 3.56736 3.57 1.58432 9 1.58432H15C20.43 1.58432 22.75 3.56736 22.75 8.20869V13.3372C22.75 17.9786 20.43 19.9616 15 19.9616ZM9 2.86646C4.39 2.86646 2.75 4.26826 2.75 8.20869V13.3372C2.75 17.2777 4.39 18.6795 9 18.6795H15C19.61 18.6795 21.25 17.2777 21.25 13.3372V8.20869C21.25 4.26826 19.61 2.86646 15 2.86646H9Z"
        fill="inherit"
      />
      <path
        d="M12.0006 11.6958C11.8706 11.6958 11.7406 11.6702 11.6206 11.6104L6.32061 8.9948C5.96061 8.8153 5.84059 8.42211 6.05059 8.12294C6.26059 7.81523 6.72061 7.71266 7.07061 7.89216L11.9906 10.3282L16.8806 7.90925C17.2406 7.72975 17.7006 7.84087 17.9006 8.14004C18.1006 8.4392 17.9806 8.84094 17.6306 9.01189L12.3706 11.6104C12.2606 11.6616 12.1306 11.6958 12.0006 11.6958Z"
        fill="inherit"
      />
      <path
        d="M12 16.3461C11.59 16.3461 11.25 16.0555 11.25 15.705V11.0551C11.25 10.7047 11.59 10.4141 12 10.4141C12.41 10.4141 12.75 10.7047 12.75 11.0551V15.705C12.75 16.0555 12.41 16.3461 12 16.3461Z"
        fill="inherit"
      />
      <path
        d="M12.0002 16.5424C11.4202 16.5424 10.8503 16.4313 10.3903 16.2176L7.19025 14.6961C6.23025 14.2431 5.49023 13.1576 5.49023 12.2173V9.3197C5.49023 8.38803 6.24025 7.30248 7.19025 6.84091L10.3903 5.31944C11.3103 4.88351 12.6902 4.88351 13.6102 5.31944L16.8102 6.84091C17.7702 7.29393 18.5103 8.37948 18.5103 9.3197V12.2173C18.5103 13.149 17.7602 14.2346 16.8102 14.6961L13.6102 16.2176C13.1502 16.4398 12.5802 16.5424 12.0002 16.5424ZM12.0002 6.28531C11.6702 6.28531 11.3502 6.3366 11.1202 6.44772L7.92026 7.96919C7.43026 8.19997 6.99023 8.84959 6.99023 9.3197V12.2173C6.99023 12.696 7.43026 13.3371 7.92026 13.5679L11.1202 15.0893C11.5802 15.3116 12.4202 15.3116 12.8802 15.0893L16.0802 13.5679C16.5702 13.3371 17.0103 12.6875 17.0103 12.2173V9.3197C17.0103 8.84105 16.5702 8.19997 16.0802 7.96919L12.8802 6.44772C12.6502 6.3366 12.3302 6.28531 12.0002 6.28531Z"
        fill="inherit"
      />
    </g>
  </symbol>
  <symbol
    id="wallet"
    width="inherit"
    height="inherit"
    viewBox="0 0 24 22"
    fill="none"
    xmlns="http://www.w3.org/2000/svg"
  >
    <g>
      <path
        d="M10.7516 15.3364V17.0716C10.7516 18.5418 9.15158 19.7299 7.18158 19.7299C5.21158 19.7299 3.60156 18.5418 3.60156 17.0716V15.3364C3.60156 16.8066 5.20158 17.8494 7.18158 17.8494C9.15158 17.8494 10.7516 16.7981 10.7516 15.3364Z"
        stroke="inherit"
        stroke-width="1.5"
        stroke-linecap="round"
        stroke-linejoin="round"
      />
      <path
        d="M10.7501 12.9855C10.7501 13.4129 10.6101 13.8061 10.3701 14.148C9.78006 14.9771 8.57004 15.4985 7.17004 15.4985C5.77004 15.4985 4.56003 14.9685 3.97003 14.148C3.73003 13.8061 3.59009 13.4129 3.59009 12.9855C3.59009 12.2504 3.99007 11.5922 4.63007 11.1136C5.28007 10.6264 6.17003 10.3358 7.16003 10.3358C8.15003 10.3358 9.04006 10.6349 9.69006 11.1136C10.3501 11.5837 10.7501 12.2504 10.7501 12.9855Z"
        stroke="inherit"
        stroke-width="1.5"
        stroke-linecap="round"
        stroke-linejoin="round"
      />
      <path
        d="M10.7516 12.9855V15.3361C10.7516 16.8063 9.15158 17.8491 7.18158 17.8491C5.21158 17.8491 3.60156 16.7977 3.60156 15.3361V12.9855C3.60156 11.5153 5.20158 10.3272 7.18158 10.3272C8.17158 10.3272 9.06161 10.6264 9.71161 11.105C10.3516 11.5837 10.7516 12.2504 10.7516 12.9855Z"
        stroke="inherit"
        stroke-width="1.5"
        stroke-linecap="round"
        stroke-linejoin="round"
      />
      <path
        d="M22 10.3015V12.0624C22 12.5325 21.56 12.917 21 12.9341H19.0399C17.9599 12.9341 16.97 12.2589 16.88 11.3357C16.82 10.7972 17.0599 10.2929 17.4799 9.94247C17.8499 9.61766 18.36 9.42966 18.92 9.42966H21C21.56 9.44675 22 9.83135 22 10.3015Z"
        stroke="inherit"
        stroke-width="1.5"
        stroke-linecap="round"
        stroke-linejoin="round"
      />
      <path
        d="M2 9.89981V8.19029C2 5.86535 3.64 4.24131 6.19 3.96779C6.45 3.9336 6.72 3.9165 7 3.9165H16C16.26 3.9165 16.51 3.92504 16.75 3.95923C19.33 4.21566 21 5.84826 21 8.19029V9.4297H18.92C18.36 9.4297 17.85 9.61774 17.48 9.94255C17.06 10.293 16.82 10.7973 16.88 11.3358C16.97 12.2589 17.96 12.9342 19.04 12.9342H21V14.1736C21 16.7379 19 18.4474 16 18.4474H13.5"
        stroke="inherit"
        stroke-width="1.5"
        stroke-linecap="round"
        stroke-linejoin="round"
      />
    </g>
  </symbol>
  <symbol
    id="discount"
    width="inherit"
    height="inherit"
    viewBox="0 0 24 21"
    stroke="none"
    xmlns="http://www.w3.org/2000/svg"
  >
    <path
      d="M12 19.446C11.37 19.446 10.78 19.241 10.34 18.8563L8.82001 17.5571C8.70001 17.4545 8.38 17.3434 8.22 17.3434H6.06C4.76 17.3434 3.70999 16.4458 3.70999 15.3346V13.4884C3.70999 13.3517 3.57999 13.0781 3.45999 12.9756L1.94 11.6763C1.5 11.3003 1.25 10.7959 1.25 10.2574C1.25 9.71886 1.49 9.21456 1.94 8.83846L3.45999 7.53921C3.57999 7.43664 3.70999 7.16314 3.70999 7.02638V5.18018C3.70999 4.06899 4.76 3.17141 6.06 3.17141H8.22C8.38 3.17141 8.70001 3.06029 8.82001 2.95772L10.34 1.65847C11.22 0.906283 12.78 0.906283 13.66 1.65847L15.18 2.95772C15.3 3.06029 15.62 3.17141 15.78 3.17141H17.94C19.24 3.17141 20.29 4.06899 20.29 5.18018V7.02638C20.29 7.16314 20.42 7.43664 20.54 7.53921L22.06 8.83846C22.5 9.21456 22.75 9.71886 22.75 10.2574C22.75 10.7959 22.51 11.3003 22.06 11.6763L20.54 12.9756C20.42 13.0781 20.29 13.3517 20.29 13.4884V15.3346C20.29 16.4458 19.24 17.3434 17.94 17.3434H15.78C15.62 17.3434 15.3 17.4545 15.18 17.5571L13.66 18.8563C13.22 19.241 12.63 19.446 12 19.446ZM4.51999 12.0694C4.91999 12.4114 5.20999 13.0098 5.20999 13.4884V15.3346C5.20999 15.7364 5.59 16.0613 6.06 16.0613H8.22C8.78 16.0613 9.48001 16.309 9.88 16.651L11.4 17.9502C11.72 18.2237 12.28 18.2237 12.6 17.9502L14.12 16.651C14.52 16.309 15.22 16.0613 15.78 16.0613H17.94C18.41 16.0613 18.79 15.7364 18.79 15.3346V13.4884C18.79 13.0098 19.08 12.4114 19.48 12.0694L21 10.7702C21.16 10.6335 21.25 10.454 21.25 10.2574C21.25 10.0608 21.16 9.88135 21 9.74459L19.48 8.44531C19.08 8.1034 18.79 7.50504 18.79 7.02638V5.18018C18.79 4.77844 18.41 4.45355 17.94 4.45355H15.78C15.22 4.45355 14.52 4.20572 14.12 3.86381L12.6 2.56456C12.28 2.29104 11.72 2.29104 11.4 2.56456L9.88 3.86381C9.48001 4.20572 8.78 4.45355 8.22 4.45355H6.06C5.59 4.45355 5.20999 4.77844 5.20999 5.18018V7.02638C5.20999 7.50504 4.91999 8.1034 4.51999 8.44531L3 9.74459C2.84 9.88135 2.75 10.0608 2.75 10.2574C2.75 10.454 2.84 10.6335 3 10.7702L4.51999 12.0694Z"
      fill="inherit"
    />
    <path
      d="M15.0002 13.6761C14.4402 13.6761 13.9902 13.2915 13.9902 12.8214C13.9902 12.3513 14.4402 11.9666 14.9902 11.9666C15.5402 11.9666 15.9902 12.3513 15.9902 12.8214C15.9902 13.2915 15.5502 13.6761 15.0002 13.6761Z"
      fill="inherit"
    />
    <path
      d="M9.01001 8.54757C8.45001 8.54757 8 8.16293 8 7.69282C8 7.2227 8.45 6.83806 9 6.83806C9.55 6.83806 10 7.2227 10 7.69282C10 8.16293 9.56001 8.54757 9.01001 8.54757Z"
      fill="inherit"
    />
    <path
      d="M8.99945 13.462C8.80945 13.462 8.61945 13.4022 8.46945 13.274C8.17945 13.0261 8.17945 12.6158 8.46945 12.3679L14.4695 7.23933C14.7595 6.99145 15.2395 6.99145 15.5295 7.23933C15.8195 7.48721 15.8195 7.89755 15.5295 8.14543L9.52945 13.274C9.37945 13.4022 9.18945 13.462 8.99945 13.462Z"
      fill="inherit"
    />
  </symbol>
  <symbol
    id="message"
    width="inherit"
    height="inherit"
    viewBox="0 0 24 21"
    fill="inherit"
    stroke="none"
    xmlns="http://www.w3.org/2000/svg"
  >
    <path
      d="M8 19.412C7.72 19.412 7.42998 19.3522 7.16998 19.2325C6.59998 18.9761 6.25 18.4633 6.25 17.9162V16.7025C3.23 16.4376 1.25 14.5399 1.25 11.8218V6.69327C1.25 3.7529 3.56 1.77841 7 1.77841H17C20.44 1.77841 22.75 3.7529 22.75 6.69327V11.8218C22.75 14.7622 20.44 16.7366 17 16.7366H13.23L8.96997 19.1642C8.67997 19.3266 8.34 19.412 8 19.412ZM7 3.05199C4.42 3.05199 2.75 4.47944 2.75 6.68471V11.8133C2.75 14.0186 4.42 15.446 7 15.446C7.41 15.446 7.75 15.7367 7.75 16.0871V17.9077C7.75 18.0189 7.83 18.0702 7.88 18.0958C7.93001 18.1214 8.03001 18.1471 8.14001 18.0872L12.59 15.5572C12.71 15.4888 12.86 15.446 13.01 15.446H17.01C19.59 15.446 21.26 14.0186 21.26 11.8133V6.68471C21.26 4.47944 19.59 3.05199 17.01 3.05199H7Z"
      fill="inherit"
    />
    <path
      d="M11.9998 10.685C11.5898 10.685 11.2498 10.3943 11.2498 10.0439V9.8644C11.2498 8.87288 12.0998 8.38566 12.4198 8.19761C12.7898 7.98392 12.9098 7.83862 12.9098 7.61638C12.9098 7.189 12.4998 6.83852 11.9998 6.83852C11.4998 6.83852 11.0898 7.189 11.0898 7.61638C11.0898 7.96683 10.7498 8.25745 10.3398 8.25745C9.92984 8.25745 9.58984 7.96683 9.58984 7.61638C9.58984 6.47955 10.6698 5.55638 11.9998 5.55638C13.3298 5.55638 14.4098 6.47955 14.4098 7.61638C14.4098 8.59081 13.5698 9.07802 13.2598 9.25752C12.8698 9.47975 12.7498 9.62506 12.7498 9.8644V10.0439C12.7498 10.4029 12.4098 10.685 11.9998 10.685Z"
      fill="inherit"
    />
    <path
      d="M12 12.8135C11.58 12.8135 11.25 12.5229 11.25 12.1724C11.25 11.822 11.59 11.5313 12 11.5313C12.41 11.5313 12.75 11.822 12.75 12.1724C12.75 12.5229 12.42 12.8135 12 12.8135Z"
      fill="inherit"
    />
  </symbol>
  <symbol
    id="arrowRight"
    width="inherit"
    height="inherit"
    viewBox="0 0 16 15"
    fill="none"
    stroke="inherit"
    xmlns="http://www.w3.org/2000/svg"
  >
    <g>
      <path
        d="M6 11.192L10 7.77297L6 4.35394"
        stroke="inherit"
        stroke-width="2"
        stroke-linecap="round"
        stroke-linejoin="round"
      />
    </g>
  </symbol>
  <symbol
    id="search"
    xmlns="http://www.w3.org/2000/svg"
    width="inherit"
    height="inherit"
    fill="none"
    viewBox="0 0 24 24"
  >
    <g>
      <path
        stroke="inherit"
        stroke-linecap="round"
        stroke-linejoin="round"
        stroke-width="2"
        d="M11 19a8 8 0 1 0 0-16 8 8 0 0 0 0 16Zm10 2-4.35-4.35"
      />
    </g>
  </symbol>
</svg>
